<svg width="86" height="32" viewBox="0 0 86 32" fill="none" xmlns="http://www.w3.org/2000/svg">
<path d="M16.32 15.57C16.18 17.61 15.78 19.39 15.12 20.91C14.46 22.41 13.66 23.67 12.72 24.69C11.8 25.71 10.8 26.47 9.72 26.97C8.66 27.47 7.65 27.72 6.69 27.72C5.95 27.72 5.24 27.56 4.56 27.24C3.9 26.92 3.32 26.44 2.82 25.8C2.34 25.14 1.96 24.32 1.68 23.34C1.4 22.36 1.26 21.21 1.26 19.89C1.26 17.31 1.63 15.06 2.37 13.14C3.11 11.22 4.04 9.62 5.16 8.34C6.3 7.06 7.51 6.11 8.79 5.49C10.09 4.87 11.3 4.56 12.42 4.56C13.22 4.56 13.91 4.7 14.49 4.98C15.09 5.26 15.58 5.64 15.96 6.12C16.34 6.58 16.61 7.13 16.77 7.77C16.95 8.39 17.04 9.05 17.04 9.75L12.93 10.53C12.75 9.73 12.51 9.16 12.21 8.82C11.91 8.48 11.57 8.31 11.19 8.31C10.69 8.31 10.14 8.67 9.54 9.39C8.94 10.09 8.38 11 7.86 12.12C7.34 13.24 6.9 14.47 6.54 15.81C6.18 17.15 5.98 18.47 5.94 19.77C5.94 21.01 6.12 21.9 6.48 22.44C6.86 22.96 7.34 23.22 7.92 23.22C8.32 23.22 8.73 23.12 9.15 22.92C9.59 22.72 9.98 22.44 10.32 22.08C10.66 21.7 10.94 21.27 11.16 20.79C11.4 20.29 11.53 19.75 11.55 19.17L8.34 19.65L8.91 16.68C9.85 16.56 10.77 16.44 11.67 16.32C12.43 16.22 13.23 16.1 14.07 15.96C14.93 15.82 15.68 15.69 16.32 15.57ZM20.0707 26.4C19.8907 26.4 19.5307 26.43 18.9907 26.49C18.4707 26.53 17.9307 26.59 17.3707 26.67C16.8107 26.73 16.3007 26.79 15.8407 26.85C15.4007 26.91 15.1607 26.95 15.1207 26.97C15.3207 26.11 15.5207 25.16 15.7207 24.12C15.9407 23.06 16.1607 21.96 16.3807 20.82C16.6007 19.66 16.8107 18.49 17.0107 17.31C17.2107 16.13 17.4007 14.99 17.5807 13.89C18.0007 11.33 18.4207 8.7 18.8407 6L23.5207 5.25C23.0607 7.93 22.6107 10.56 22.1707 13.14C21.9907 14.24 21.8007 15.38 21.6007 16.56C21.4207 17.74 21.2307 18.91 21.0307 20.07C20.8507 21.23 20.6807 22.36 20.5207 23.46C20.3607 24.54 20.2107 25.52 20.0707 26.4ZM22.8052 27.27C23.0652 24.47 23.3052 21.72 23.5252 19.02C23.6252 17.9 23.7152 16.72 23.7952 15.48C23.8952 14.24 23.9752 13.02 24.0352 11.82C24.1152 10.6 24.1752 9.43 24.2152 8.31C24.2552 7.17 24.2852 6.13 24.3052 5.19C24.7852 5.19 25.2952 5.18 25.8352 5.16C26.3952 5.14 26.8952 5.12 27.3352 5.1C27.7952 5.08 28.1852 5.06 28.5052 5.04C28.8252 5 28.9852 4.98 28.9852 4.98C28.7652 7.3 28.5752 9.21 28.4152 10.71C28.2552 12.19 28.1252 13.4 28.0252 14.34C27.9452 15.26 27.8652 16.15 27.7852 17.01C27.7252 17.87 27.6552 18.67 27.5752 19.41C27.4952 20.15 27.4252 20.78 27.3652 21.3H27.9052L31.2652 5.34C31.8052 5.32 32.3552 5.29 32.9152 5.25C33.4152 5.21 33.9352 5.18 34.4752 5.16C35.0352 5.14 35.5452 5.1 36.0052 5.04C35.7252 5.92 35.4352 6.89 35.1352 7.95C34.8552 9.01 34.5552 10.11 34.2352 11.25C33.9352 12.39 33.6352 13.55 33.3352 14.73C33.0552 15.91 32.7752 17.05 32.4952 18.15C31.8552 20.73 31.2152 23.38 30.5752 26.1L22.8052 27.27ZM43.4423 26.4C42.9423 26.48 42.3923 26.57 41.7923 26.67C41.1923 26.77 40.6523 26.86 40.1723 26.94C40.2523 26.28 40.3323 25.63 40.4123 24.99C40.4723 24.43 40.5223 23.87 40.5623 23.31C40.6223 22.75 40.6723 22.27 40.7123 21.87H38.1023L36.9023 26.19C36.4623 26.25 35.9423 26.32 35.3423 26.4C34.7423 26.46 34.1823 26.52 33.6623 26.58C33.0223 26.66 32.3923 26.74 31.7723 26.82C32.5723 24.16 33.3623 21.54 34.1423 18.96C34.4623 17.88 34.7923 16.75 35.1323 15.57C35.4923 14.39 35.8423 13.22 36.1823 12.06C36.5423 10.88 36.8823 9.75 37.2023 8.67C37.5223 7.59 37.8023 6.6 38.0423 5.7C39.4023 5.6 40.7823 5.48 42.1823 5.34C43.6023 5.2 44.9823 5.01 46.3223 4.77C46.2623 5.41 46.1923 6.21 46.1123 7.17C46.0523 8.11 45.9923 9.14 45.9323 10.26C45.8723 11.38 45.8123 12.55 45.7523 13.77C45.6923 14.99 45.6323 16.19 45.5723 17.37C45.4723 20.13 45.3623 23.06 45.2423 26.16C44.6423 26.26 44.0423 26.34 43.4423 26.4ZM38.8223 18.87C38.9023 18.87 39.0423 18.87 39.2423 18.87C39.4623 18.85 39.6823 18.84 39.9023 18.84C40.1423 18.82 40.3623 18.81 40.5623 18.81C40.7623 18.79 40.9023 18.77 40.9823 18.75C40.9823 18.63 40.9923 18.43 41.0123 18.15C41.0523 17.85 41.0823 17.52 41.1023 17.16C41.1423 16.78 41.1823 16.37 41.2223 15.93C41.2623 15.49 41.3023 15.06 41.3423 14.64C41.4223 13.62 41.5223 12.52 41.6423 11.34L41.8223 8.73L41.3723 8.76L40.6823 11.34L38.8223 18.87ZM58.3109 25.8C58.1309 25.8 57.7509 25.81 57.1709 25.83C56.5909 25.85 55.9009 25.88 55.1009 25.92C54.3209 25.96 53.4709 26.01 52.5509 26.07C51.6309 26.13 50.7309 26.2 49.8509 26.28C48.9709 26.34 48.1509 26.41 47.3909 26.49C46.6509 26.57 46.0609 26.65 45.6209 26.73L45.6509 22.35L54.1709 10.74C53.8309 10.74 53.3509 10.78 52.7309 10.86C52.1109 10.92 51.4809 10.99 50.8409 11.07C50.2209 11.15 49.6809 11.23 49.2209 11.31L48.5009 11.37L49.0709 6.66L61.3409 5.79L60.5609 9.93L52.3709 21.57C52.7709 21.57 53.3009 21.55 53.9609 21.51C54.6409 21.47 55.3409 21.43 56.0609 21.39C56.7809 21.35 57.5609 21.3 58.4009 21.24L58.3109 25.8ZM71.2308 25.8C71.0508 25.8 70.6708 25.81 70.0908 25.83C69.5108 25.85 68.8208 25.88 68.0208 25.92C67.2408 25.96 66.3908 26.01 65.4708 26.07C64.5508 26.13 63.6508 26.2 62.7708 26.28C61.8908 26.34 61.0708 26.41 60.3108 26.49C59.5708 26.57 58.9808 26.65 58.5408 26.73L58.5708 22.35L67.0908 10.74C66.7508 10.74 66.2708 10.78 65.6508 10.86C65.0308 10.92 64.4008 10.99 63.7608 11.07C63.1408 11.15 62.6008 11.23 62.1408 11.31L61.4208 11.37L61.9908 6.66L74.2608 5.79L73.4808 9.93L65.2908 21.57C65.6908 21.57 66.2208 21.55 66.8808 21.51C67.5608 21.47 68.2608 21.43 68.9808 21.39C69.7008 21.35 70.4808 21.3 71.3208 21.24L71.2308 25.8ZM82.2607 26.4C81.7607 26.48 81.2107 26.57 80.6107 26.67C80.0107 26.77 79.4707 26.86 78.9907 26.94C79.0707 26.28 79.1507 25.63 79.2307 24.99C79.2907 24.43 79.3407 23.87 79.3807 23.31C79.4407 22.75 79.4907 22.27 79.5307 21.87H76.9207L75.7207 26.19C75.2807 26.25 74.7607 26.32 74.1607 26.4C73.5607 26.46 73.0007 26.52 72.4807 26.58C71.8407 26.66 71.2107 26.74 70.5907 26.82C71.3907 24.16 72.1807 21.54 72.9607 18.96C73.2807 17.88 73.6107 16.75 73.9507 15.57C74.3107 14.39 74.6607 13.22 75.0007 12.06C75.3607 10.88 75.7007 9.75 76.0207 8.67C76.3407 7.59 76.6207 6.6 76.8607 5.7C78.2207 5.6 79.6007 5.48 81.0007 5.34C82.4207 5.2 83.8007 5.01 85.1407 4.77C85.0807 5.41 85.0107 6.21 84.9307 7.17C84.8707 8.11 84.8107 9.14 84.7507 10.26C84.6907 11.38 84.6307 12.55 84.5707 13.77C84.5107 14.99 84.4507 16.19 84.3907 17.37C84.2907 20.13 84.1807 23.06 84.0607 26.16C83.4607 26.26 82.8607 26.34 82.2607 26.4ZM77.6407 18.87C77.7207 18.87 77.8607 18.87 78.0607 18.87C78.2807 18.85 78.5007 18.84 78.7207 18.84C78.9607 18.82 79.1807 18.81 79.3807 18.81C79.5807 18.79 79.7207 18.77 79.8007 18.75C79.8007 18.63 79.8107 18.43 79.8307 18.15C79.8707 17.85 79.9007 17.52 79.9207 17.16C79.9607 16.78 80.0007 16.37 80.0407 15.93C80.0807 15.49 80.1207 15.06 80.1607 14.64C80.2407 13.62 80.3407 12.52 80.4607 11.34L80.6407 8.73L80.1907 8.76L79.5007 11.34L77.6407 18.87Z" fill="#FA26A0"/>
</svg>
